<svg width="467" height="175" viewBox="0 0 467 175" fill="none" xmlns="http://www.w3.org/2000/svg">
<rect width="466.114" height="175" fill="#92001F"/>
<path d="M150.037 91.0762V20.134H36.1663L36.1947 90.9339C36.1663 92.0155 35.7962 117.209 57.4029 131.358L93.1017 156.01L128.772 131.386C150.436 117.154 150.066 91.9871 150.037 91.0762ZM125.584 126.661L93.1017 149.093L60.6216 126.661C41.2921 114.021 41.8613 91.0762 41.8613 91.0762V25.8291H144.344V91.0762C144.344 91.0762 144.914 114.023 125.584 126.661Z" fill="white"/>
<path d="M144.344 65.0859H41.8613V70.7788H144.344V65.0859Z" fill="white"/>
<path d="M64.4425 49.0165C64.4425 49.7763 64.3922 50.3346 64.2761 50.8579C64.182 51.3506 64.02 51.7578 63.7725 52.0929C63.5645 52.3972 63.2689 52.6293 62.8551 52.8198C62.0296 53.1811 60.3415 53.1767 59.5007 52.8285C59.0803 52.6293 58.7913 52.395 58.5832 52.0907C58.3533 51.7578 58.1891 51.3353 58.0993 50.8317C58.0052 50.3456 57.957 49.7369 57.957 49.0187V33.6982H51.7014V37.4731H52.9845V49.0165C52.9845 51.6637 53.6961 53.7197 55.104 55.1298C56.5141 56.5158 58.5526 57.2186 61.1648 57.2186C63.8229 57.2186 65.8877 56.5158 67.2956 55.1298C68.6859 53.7657 69.3932 51.7075 69.3932 49.0165V33.6982H64.4447V49.0165H64.4425Z" fill="white"/>
<path d="M86.0098 35.2925C85.2587 34.6969 84.3588 34.27 83.3385 34.0313C82.4079 33.808 81.3525 33.7007 80.1154 33.7007H71.5564V37.4711H73.0628V56.7963H77.9697L77.9456 48.9073H80.7767C81.7642 48.9073 82.6948 48.8 83.6428 48.5745C84.569 48.3292 85.3967 47.911 86.1192 47.3155C86.8265 46.7089 87.3848 45.901 87.7789 44.9135C88.1796 43.9129 88.3833 42.6889 88.3833 41.2788C88.3833 39.8775 88.1709 38.6688 87.7527 37.6857C87.3651 36.7179 86.7608 35.8903 86.0098 35.2925ZM83.3473 41.3708C83.3473 41.8218 83.3013 42.3101 83.2049 42.8991C83.1042 43.3698 82.9575 43.764 82.778 44.0552C82.5612 44.3836 82.305 44.6288 82.0116 44.7996C81.6547 44.9967 81.2299 45.0908 80.7132 45.0908H77.9675V37.4689H80.2227C80.8905 37.4689 81.4314 37.5434 81.8627 37.6923C82.2437 37.8302 82.524 38.0207 82.7167 38.2769C82.9466 38.5747 83.0933 38.9381 83.1808 39.4199C83.2903 39.9804 83.3473 40.6526 83.3473 41.3708Z" fill="white"/>
<path d="M103.999 46.4943C104.558 46.0586 105.037 45.52 105.427 44.8938C105.775 44.3398 106.038 43.6917 106.226 42.9078C106.386 42.24 106.467 41.4824 106.467 40.6569C106.467 39.2009 106.222 38.0404 105.716 37.1033C105.228 36.2012 104.54 35.472 103.647 34.9203C102.826 34.4495 101.882 34.1276 100.741 33.924C99.7339 33.7707 98.6238 33.6941 97.4436 33.6941H89.5962V37.4689H91.2778V56.7941H96.2262V48.084H97.7173L102.657 56.7941H108.378L102.718 47.2454C103.211 47.0286 103.642 46.7768 103.999 46.4943ZM101.453 40.8584C101.453 41.3729 101.402 41.8503 101.302 42.286C101.188 42.6998 101.03 43.0282 100.798 43.3129C100.601 43.5734 100.34 43.7815 100.025 43.9282C99.7514 44.0333 99.3004 44.1581 98.6851 44.1581H96.2284V37.5587H97.8443C99.0311 37.5587 99.9178 37.8171 100.559 38.3469C101.159 38.8483 101.453 39.6694 101.453 40.8584Z" fill="white"/>
<path d="M109.101 37.4709H110.562V56.8179H115.6V33.6982H109.101V37.4709Z" fill="white"/>
<path d="M117.677 33.6982V40.3064H121.325L121.704 37.8475H123.616V56.7961H128.564V37.8475H130.478L130.854 40.3064H134.504V33.6982H117.677Z" fill="white"/>
<path d="M93.0777 77.7527H91.0217V80.8356H93.0777V77.7527Z" fill="white"/>
<path d="M83.2968 79.8962L85.2236 83.439L83.5355 84.3367L81.6064 80.7962L83.2968 79.8962Z" fill="white"/>
<path d="M76.1173 84.9478L79.4192 87.4526L78.2718 88.9853L74.97 86.4783L76.1173 84.9478Z" fill="white"/>
<path d="M80.8094 94.641C88.8517 96.2197 92.8433 99.9245 93.1017 100.327V102.539H93.0732C92.7295 102.051 87.8752 97.9429 79.5176 96.3642C78.8279 96.2197 78.1097 96.1059 77.3631 96.0205C76.2135 95.8475 75.0377 95.7621 73.7722 95.7336C73.054 103.745 72.2219 111.759 71.5038 119.83C75.2085 119.915 78.8563 120.491 82.3597 121.638C85.8345 122.76 89.4823 124.999 93.0711 127.123H93.0995V129.392H93.0711C82.2436 124.165 67.5691 125.4 67.5691 125.4L69.809 97.3693H71.5607L71.9636 93.809C71.9636 93.809 73.8006 93.693 77.9937 94.1243L80.8094 94.641Z" fill="white"/>
<path d="M93.0732 84.3303C89.9137 84.3588 87.3869 84.9324 85.3484 85.909C85.32 85.9375 85.2915 85.9375 85.2915 85.9375C82.9946 87.2008 81.0415 88.981 79.6052 91.1355C79.4913 91.28 79.4037 91.4508 79.3183 91.6238C78.7731 92.3989 78.3702 93.2331 77.998 94.1221C77.7396 94.7242 77.5382 95.357 77.3652 96.0183C78.1119 96.1037 78.8301 96.2197 79.5198 96.362C81.186 90.4458 86.614 86.1082 93.0754 86.1082H93.1039V84.3281H93.0732V84.3303Z" fill="white"/>
<path fill-rule="evenodd" clip-rule="evenodd" d="M144.345 91.0767C144.348 91.1992 144.861 114.056 125.584 126.661L93.1016 149.093V65.0864H144.345V91.0767ZM93.1914 84.3325V86.1099H93.2197C98.9902 86.1099 103.934 89.5709 106.112 94.5249L105.483 94.6411C97.4414 96.2198 93.4498 99.9248 93.1914 100.328V102.539H93.2197C93.5638 102.05 98.4182 97.9424 106.775 96.3638C107.465 96.2193 108.184 96.1054 108.931 96.02C110.08 95.8471 111.256 95.7623 112.521 95.7339C113.24 103.745 114.071 111.759 114.789 119.83C111.084 119.915 107.437 120.491 103.934 121.638C100.459 122.759 96.8113 125 93.2227 127.124H93.1934V129.392H93.2227C104.05 124.166 118.725 125.4 118.725 125.4L116.484 97.3696H114.732L114.33 93.8091C114.33 93.8091 112.493 93.6932 108.3 94.1245H108.298C107.923 93.2334 107.523 92.4006 106.978 91.6255C106.892 91.4525 106.804 91.2817 106.69 91.1372C105.254 88.9827 103.301 87.2023 101.004 85.939C101.003 85.939 100.975 85.9386 100.947 85.9106C98.9089 84.9341 96.3798 84.361 93.2227 84.3325H93.1914ZM106.876 87.4526L108.023 88.9849L111.325 86.478L110.178 84.9478L106.876 87.4526ZM101.069 83.439L102.758 84.3364L104.689 80.7964L102.999 79.896L101.069 83.439ZM93.2158 77.7524V80.8354H95.2715V77.7524H93.2158Z" fill="white"/>
<path d="M180.017 46.9432V33.1313H186.209V46.9432C186.209 52.5069 183.582 56.3759 179.586 57.9961C178.197 58.5589 176.689 58.8413 175.062 58.8413C169.509 58.8413 166.01 55.8963 164.478 51.7865C163.928 50.3107 163.652 48.6948 163.652 46.9454V33.1335H169.844V46.9454C169.844 50.4618 171.686 53.1375 175.062 53.1375C178.307 53.1375 180.017 50.3677 180.017 46.9432Z" fill="white"/>
<path d="M216.084 58.2786H210.98L198.256 43.7158V58.2786H192.064V33.1335H197.205L209.929 48.1453V33.1335H216.084V58.2786Z" fill="white"/>
<path d="M222.011 58.2786V33.1335H228.203V58.2808H222.011V58.2786Z" fill="white"/>
<path d="M248.883 58.2786H242.917L232.221 33.1313H239.052L245.884 49.7962L252.752 33.1313H259.584L248.883 58.2786Z" fill="white"/>
<path d="M283.148 58.2786H263.556V33.1335H283.034V38.463H269.748V43.1924H281.946V48.2219H269.748V52.9514H283.146V58.2786H283.148Z" fill="white"/>
<path d="M303.715 49.3451L311.597 58.2786H304.128L296.546 49.6451H294.744V58.2786H288.552V33.1335H301.275C306.449 33.1335 310.321 36.2822 310.321 41.3532C310.321 45.7411 307.448 48.5175 303.715 49.3451ZM300.599 38.4236H294.744V44.4668H300.599C302.622 44.4668 304.24 43.3654 304.24 41.4276C304.24 39.5074 302.589 38.4236 300.599 38.4236Z" fill="white"/>
<path d="M321.503 40.1139C321.503 41.3948 322.328 41.9663 323.53 42.2159L328.748 43.3785C332.626 44.25 335.654 46.295 335.654 50.6961C335.654 55.0139 332.711 57.3524 329.274 58.3158C328.023 58.6661 326.697 58.8413 325.295 58.8413C320.791 58.8413 317.295 57.1947 315.499 54.4315C314.873 53.4681 314.472 52.3974 314.297 51.2216H321.144C321.893 52.8178 323.487 53.698 325.63 53.698C327.555 53.698 329.346 52.8857 329.346 51.1077C329.346 49.6801 328.391 49.1765 327.018 48.8941L321.763 47.7686C317.259 46.7439 315.009 44.3157 315.009 40.4883C315.009 35.3187 319.561 32.5686 324.954 32.5686C330.436 32.5686 334.404 35.3143 335.35 39.8489H328.831C328.146 38.5374 326.668 37.5586 324.879 37.5586C323.134 37.5608 321.503 38.4783 321.503 40.1139Z" fill="white"/>
<path d="M340.867 58.2786V33.1335H347.059V58.2808H340.867V58.2786Z" fill="white"/>
<path d="M362.936 33.1335C369.349 33.1335 373.825 36.0873 375.734 40.6394C376.384 42.1896 376.711 43.88 376.711 45.7061C376.711 49.7239 375.132 52.7587 372.92 54.7884C370.619 56.9014 367.219 58.2786 362.936 58.2786H352.991V33.1335H362.936ZM362.71 38.5002H359.183V52.912H362.71C367.221 52.912 370.479 50.1553 370.479 45.7061C370.479 41.2569 367.221 38.5002 362.71 38.5002Z" fill="white"/>
<path d="M399.789 58.2786L398.024 53.7002H387.44L385.675 58.2786H379.032L389.539 33.1313H395.883L406.39 58.2786H399.789ZM392.734 40.1139L389.544 48.3708H395.961L392.734 40.1139Z" fill="white"/>
<path d="M420.093 33.1335C426.506 33.1335 430.981 36.0873 432.891 40.6394C433.541 42.1896 433.867 43.88 433.867 45.7061C433.867 49.7239 432.289 52.7587 430.077 54.7884C427.776 56.9014 424.376 58.2786 420.093 58.2786H410.148V33.1335H420.093ZM419.867 38.5002H416.34V52.912H419.867C424.378 52.912 427.636 50.1553 427.636 45.7061C427.636 41.2569 424.378 38.5002 419.867 38.5002Z" fill="white"/>
<path d="M175.776 83.8573H169.846V91.5514H163.652V66.4042H176.039C180.398 66.4042 183.38 68.4317 184.633 71.565C185.057 72.6291 185.27 73.7984 185.27 75.0749C185.272 80.5269 181.324 83.8573 175.776 83.8573ZM175.325 71.6964H169.844V78.6767H175.325C177.567 78.6767 179.191 77.3345 179.191 75.1493C179.191 73.0276 177.523 71.6964 175.325 71.6964Z" fill="white"/>
<path d="M203.734 82.618L211.617 91.5514H204.148L196.566 82.9201H194.766V91.5514H188.574V66.4042H201.297C206.471 66.4042 210.342 69.5528 210.342 74.6238C210.34 79.0139 207.468 81.7881 203.734 82.618ZM200.621 71.6964H194.766V77.7396H200.621C202.644 77.7396 204.262 76.6361 204.262 74.6983C204.26 72.7802 202.611 71.6964 200.621 71.6964Z" fill="white"/>
<path d="M214.054 91.5514V66.4042H220.246V91.5514H214.054Z" fill="white"/>
<path d="M239.35 91.5514H233.383L222.687 66.4042H229.519L236.35 83.069L243.219 66.4042H250.05L239.35 91.5514Z" fill="white"/>
<path d="M271.064 91.5514L269.299 86.973H258.715L256.95 91.5514H250.307L260.814 66.4042H267.158L277.665 91.5514H271.064ZM264.007 73.3867L260.817 81.6436H267.234L264.007 73.3867Z" fill="white"/>
<path d="M289.789 66.4042C296.202 66.4042 300.678 69.3579 302.587 73.91C303.237 75.4603 303.564 77.1506 303.564 78.9767C303.564 82.9946 301.985 86.0293 299.773 88.0591C297.472 90.172 294.072 91.5492 289.789 91.5492H279.844V66.4042H289.789ZM289.566 71.7708H286.038V86.1826H289.566C294.076 86.1826 297.334 83.4259 297.334 78.9767C297.334 74.5275 294.076 71.7708 289.566 71.7708Z" fill="white"/>
<path d="M325.63 91.5514L323.865 86.973H313.281L311.516 91.5514H304.873L315.381 66.4042H321.724L332.232 91.5514H325.63ZM318.575 73.3867L315.385 81.6436H321.803L318.575 73.3867Z" fill="white"/>
<path d="M353.004 66.4042C359.417 66.4042 363.893 69.3579 365.802 73.91C366.452 75.4603 366.779 77.1506 366.779 78.9767C366.779 82.9946 365.2 86.0293 362.989 88.0591C360.687 90.172 357.287 91.5492 353.006 91.5492H343.061V66.4042H353.004ZM352.779 71.773H349.251V86.1848H352.779C357.289 86.1848 360.547 83.4281 360.547 78.9789C360.547 74.5275 357.289 71.773 352.779 71.773Z" fill="white"/>
<path d="M391.398 91.5514H371.806V66.4042H391.284V71.7336H377.998V76.4631H390.196V81.4925H377.998V86.222H391.396V91.5514H391.398Z" fill="white"/>
<path d="M177.952 104.597V124.338H171.797V104.597H163.652V99.193H186.095V104.597H177.952Z" fill="white"/>
<path d="M205.725 115.407L213.607 124.34H206.138L198.556 115.709H196.754V124.34H190.562V99.193H203.285C208.459 99.193 212.331 102.342 212.331 107.413C212.331 111.801 209.458 114.577 205.725 115.407ZM202.609 104.485H196.754V110.528H202.609C204.632 110.528 206.25 109.425 206.25 107.487C206.25 105.569 204.599 104.485 202.609 104.485Z" fill="white"/>
<path d="M233.909 113.005V99.193H240.101V113.005C240.101 118.569 237.474 122.438 233.478 124.058C232.089 124.621 230.581 124.903 228.954 124.903C223.401 124.903 219.902 121.958 218.37 117.846C217.82 116.37 217.544 114.756 217.544 113.005V99.193H223.736V113.005C223.736 116.521 225.578 119.197 228.954 119.197C232.199 119.197 233.909 116.427 233.909 113.005Z" fill="white"/>
<path d="M257.552 115.293V99.1908H263.744V115.293C263.744 119.93 261.158 122.895 257.72 124.189C256.457 124.664 255.086 124.903 253.611 124.903C247.962 124.903 244.283 121.43 243.552 116.458H249.777C250.265 118.174 251.537 119.385 253.611 119.385C255.973 119.385 257.552 117.662 257.552 115.293Z" fill="white"/>
<path d="M269.599 124.338V99.193H275.791V124.34H269.599V124.338Z" fill="white"/>
<path d="M300.299 124.338H281.72V99.193H287.913V118.934H300.299V124.338Z" fill="white"/>
<path d="M323.867 124.338H305.289V99.193H311.481V118.934H323.867V124.338Z" fill="white"/>
<path d="M350.064 102.477C352.212 104.606 353.968 107.805 353.968 111.805C353.968 115.792 352.216 118.967 350.064 121.076C347.885 123.208 344.627 124.905 340.567 124.905C336.51 124.905 333.248 123.206 331.071 121.076C328.917 118.965 327.167 115.797 327.167 111.805C327.167 107.809 328.923 104.603 331.071 102.477C333.246 100.325 336.497 98.6302 340.567 98.6302C344.633 98.6302 347.892 100.327 350.064 102.477ZM347.228 114.73C347.592 113.804 347.773 112.83 347.773 111.803C347.773 108.499 345.982 105.981 343.552 104.934C342.564 104.509 341.568 104.297 340.567 104.297C337.358 104.297 334.951 106.228 333.981 108.669C333.567 109.707 333.362 110.752 333.362 111.803C333.362 115.264 335.258 117.625 337.734 118.671C338.623 119.046 339.567 119.234 340.567 119.234C343.968 119.234 346.249 117.228 347.228 114.73Z" fill="white"/>
</svg>
